  0
SECTION
  2
HEADER
  9
$EXTMIN
 10
0.000000
 20
0.000000
  9
$EXTMAX
 10
36.000000
 20
24.000000
  9
$LTSCALE
 40
100.000000
  9
$PDMODE
 70
35
  9
$PDSIZE
 40
80.000000
  0
ENDSEC
  0
SECTION
  2
TABLES
  0
TABLE
  2
LAYER
 70
1
  0
LAYER
  2
LAYER_1
 70
0
 62
1
  6
CONTINUOUS
  0
ENDTAB
  0
ENDSEC
  0
SECTION
  2
BLOCKS
  0
ENDSEC
  0
SECTION
  2
ENTITIES
  0
POLYLINE
  8
LAYER_1
 62
2
 70
1
 66
1
  0
VERTEX
  8
LAYER_1
 62
7
 10
10.041065
 20
19.709638
 42
0.199589
  0
VERTEX
  8
LAYER_1
 62
7
 10
9.996523
 20
19.691189
 42
0.199589
  0
VERTEX
  8
LAYER_1
 62
7
 10
9.978073
 20
19.646646
 42
0.199589
  0
VERTEX
  8
LAYER_1
 62
7
 10
9.996523
 20
19.602104
 42
0.199589
  0
VERTEX
  8
LAYER_1
 62
7
 10
10.041065
 20
19.583654
 42
0.199589
  0
VERTEX
  8
LAYER_1
 62
7
 10
10.085607
 20
19.602104
 42
0.199589
  0
VERTEX
  8
LAYER_1
 62
7
 10
10.104057
 20
19.646646
 42
0.199589
  0
VERTEX
  8
LAYER_1
 62
7
 10
10.085607
 20
19.691189
 42
0.199589
  0
VERTEX
  8
LAYER_1
 62
7
 10
10.041065
 20
19.709638
  0
SEQEND
  0
POLYLINE
  8
LAYER_1
 62
2
 70
1
 66
1
  0
VERTEX
  8
LAYER_1
 62
7
 10
9.987585
 20
17.822128
 42
0.199589
  0
VERTEX
  8
LAYER_1
 62
7
 10
9.931908
 20
17.799065
 42
0.199589
  0
VERTEX
  8
LAYER_1
 62
7
 10
9.908845
 20
17.743388
 42
0.199589
  0
VERTEX
  8
LAYER_1
 62
7
 10
9.931908
 20
17.687710
 42
0.199589
  0
VERTEX
  8
LAYER_1
 62
7
 10
9.987585
 20
17.664648
 42
0.199589
  0
VERTEX
  8
LAYER_1
 62
7
 10
10.043263
 20
17.687710
 42
0.199589
  0
VERTEX
  8
LAYER_1
 62
7
 10
10.066326
 20
17.743388
 42
0.199589
  0
VERTEX
  8
LAYER_1
 62
7
 10
10.043263
 20
17.799065
 42
0.199589
  0
VERTEX
  8
LAYER_1
 62
7
 10
9.987585
 20
17.822128
  0
SEQEND
  0
POLYLINE
  8
LAYER_1
 62
2
 70
1
 66
1
  0
VERTEX
  8
LAYER_1
 62
7
 10
12.038508
 20
19.120582
 42
0.199589
  0
VERTEX
  8
LAYER_1
 62
7
 10
11.982830
 20
19.097519
 42
0.199589
  0
VERTEX
  8
LAYER_1
 62
7
 10
11.959768
 20
19.041842
 42
0.199589
  0
VERTEX
  8
LAYER_1
 62
7
 10
11.982830
 20
18.986164
 42
0.199589
  0
VERTEX
  8
LAYER_1
 62
7
 10
12.038508
 20
18.963102
 42
0.199589
  0
VERTEX
  8
LAYER_1
 62
7
 10
12.094186
 20
18.986164
 42
0.199589
  0
VERTEX
  8
LAYER_1
 62
7
 10
12.117248
 20
19.041842
 42
0.199589
  0
VERTEX
  8
LAYER_1
 62
7
 10
12.094186
 20
19.097519
 42
0.199589
  0
VERTEX
  8
LAYER_1
 62
7
 10
12.038508
 20
19.120582
  0
SEQEND
  0
POLYLINE
  8
LAYER_1
 62
2
 70
1
 66
1
  0
VERTEX
  8
LAYER_1
 62
7
 10
12.040405
 20
18.020202
 42
0.199589
  0
VERTEX
  8
LAYER_1
 62
7
 10
11.984727
 20
17.997140
 42
0.199589
  0
VERTEX
  8
LAYER_1
 62
7
 10
11.961664
 20
17.941462
 42
0.199589
  0
VERTEX
  8
LAYER_1
 62
7
 10
11.984727
 20
17.885785
 42
0.199589
  0
VERTEX
  8
LAYER_1
 62
7
 10
12.040405
 20
17.862722
 42
0.199589
  0
VERTEX
  8
LAYER_1
 62
7
 10
12.096082
 20
17.885785
 42
0.199589
  0
VERTEX
  8
LAYER_1
 62
7
 10
12.119145
 20
17.941462
 42
0.199589
  0
VERTEX
  8
LAYER_1
 62
7
 10
12.096082
 20
17.997140
 42
0.199589
  0
VERTEX
  8
LAYER_1
 62
7
 10
12.040405
 20
18.020202
  0
SEQEND
  0
ENDSEC
  0
EOF
