  0
SECTION
  2
HEADER
  9
$EXTMIN
 10
0.000000
 20
0.000000
  9
$EXTMAX
 10
36.000000
 20
24.000000
  9
$LTSCALE
 40
100.000000
  9
$PDMODE
 70
35
  9
$PDSIZE
 40
80.000000
  0
ENDSEC
  0
SECTION
  2
TABLES
  0
TABLE
  2
LAYER
 70
1
  0
LAYER
  2
LAYER_1
 70
0
 62
1
  6
CONTINUOUS
  0
ENDTAB
  0
ENDSEC
  0
SECTION
  2
BLOCKS
  0
ENDSEC
  0
SECTION
  2
ENTITIES
  0
POLYLINE
  8
LAYER_1
 62
1
 70
1
 66
1
  0
VERTEX
  8
LAYER_1
 62
7
 10
8.735740
 20
22.021036
  0
VERTEX
  8
LAYER_1
 62
7
 10
6.216384
 20
22.021036
 42
0.206049
  0
VERTEX
  8
LAYER_1
 62
7
 10
6.109301
 20
21.974588
 42
0.193138
  0
VERTEX
  8
LAYER_1
 62
7
 10
6.064946
 20
21.862454
  0
VERTEX
  8
LAYER_1
 62
7
 10
6.064946
 20
19.883393
 42
0.193138
  0
VERTEX
  8
LAYER_1
 62
7
 10
6.109301
 20
19.771259
 42
0.206049
  0
VERTEX
  8
LAYER_1
 62
7
 10
6.216384
 20
19.724812
  0
VERTEX
  8
LAYER_1
 62
7
 10
8.735740
 20
19.724812
 42
0.206049
  0
VERTEX
  8
LAYER_1
 62
7
 10
8.842822
 20
19.771259
 42
0.193138
  0
VERTEX
  8
LAYER_1
 62
7
 10
8.887177
 20
19.883393
  0
VERTEX
  8
LAYER_1
 62
7
 10
8.887177
 20
21.862454
 42
0.193138
  0
VERTEX
  8
LAYER_1
 62
7
 10
8.842822
 20
21.974588
 42
0.206049
  0
VERTEX
  8
LAYER_1
 62
7
 10
8.735740
 20
22.021036
  0
SEQEND
  0
POLYLINE
  8
LAYER_1
 62
1
 70
1
 66
1
  0
VERTEX
  8
LAYER_1
 62
7
 10
6.674998
 20
21.875136
 42
-0.199589
  0
VERTEX
  8
LAYER_1
 62
7
 10
6.719540
 20
21.856686
 42
-0.199589
  0
VERTEX
  8
LAYER_1
 62
7
 10
6.737990
 20
21.812144
 42
-0.199589
  0
VERTEX
  8
LAYER_1
 62
7
 10
6.719540
 20
21.767602
 42
-0.199589
  0
VERTEX
  8
LAYER_1
 62
7
 10
6.674998
 20
21.749152
 42
-0.199589
  0
VERTEX
  8
LAYER_1
 62
7
 10
6.630456
 20
21.767602
 42
-0.199589
  0
VERTEX
  8
LAYER_1
 62
7
 10
6.612006
 20
21.812144
 42
-0.199589
  0
VERTEX
  8
LAYER_1
 62
7
 10
6.630456
 20
21.856686
 42
-0.199589
  0
VERTEX
  8
LAYER_1
 62
7
 10
6.674998
 20
21.875136
  0
SEQEND
  0
POLYLINE
  8
LAYER_1
 62
1
 70
1
 66
1
  0
VERTEX
  8
LAYER_1
 62
7
 10
8.671935
 20
21.291137
 42
-0.199589
  0
VERTEX
  8
LAYER_1
 62
7
 10
8.727613
 20
21.268075
 42
-0.199589
  0
VERTEX
  8
LAYER_1
 62
7
 10
8.750675
 20
21.212397
 42
-0.199589
  0
VERTEX
  8
LAYER_1
 62
7
 10
8.727613
 20
21.156720
 42
-0.199589
  0
VERTEX
  8
LAYER_1
 62
7
 10
8.671935
 20
21.133657
 42
-0.199589
  0
VERTEX
  8
LAYER_1
 62
7
 10
8.616257
 20
21.156720
 42
-0.199589
  0
VERTEX
  8
LAYER_1
 62
7
 10
8.593195
 20
21.212397
 42
-0.199589
  0
VERTEX
  8
LAYER_1
 62
7
 10
8.616257
 20
21.268075
 42
-0.199589
  0
VERTEX
  8
LAYER_1
 62
7
 10
8.671935
 20
21.291137
  0
SEQEND
  0
POLYLINE
  8
LAYER_1
 62
1
 70
1
 66
1
  0
VERTEX
  8
LAYER_1
 62
7
 10
8.673832
 20
20.190758
 42
-0.199589
  0
VERTEX
  8
LAYER_1
 62
7
 10
8.729510
 20
20.167696
 42
-0.199589
  0
VERTEX
  8
LAYER_1
 62
7
 10
8.752572
 20
20.112018
 42
-0.199589
  0
VERTEX
  8
LAYER_1
 62
7
 10
8.729510
 20
20.056340
 42
-0.199589
  0
VERTEX
  8
LAYER_1
 62
7
 10
8.673832
 20
20.033278
 42
-0.199589
  0
VERTEX
  8
LAYER_1
 62
7
 10
8.618154
 20
20.056340
 42
-0.199589
  0
VERTEX
  8
LAYER_1
 62
7
 10
8.595092
 20
20.112018
 42
-0.199589
  0
VERTEX
  8
LAYER_1
 62
7
 10
8.618154
 20
20.167696
 42
-0.199589
  0
VERTEX
  8
LAYER_1
 62
7
 10
8.673832
 20
20.190758
  0
SEQEND
  0
POLYLINE
  8
LAYER_1
 62
1
 70
1
 66
1
  0
VERTEX
  8
LAYER_1
 62
7
 10
6.621013
 20
19.992683
 42
-0.199589
  0
VERTEX
  8
LAYER_1
 62
7
 10
6.676690
 20
19.969621
 42
-0.199589
  0
VERTEX
  8
LAYER_1
 62
7
 10
6.699753
 20
19.913943
 42
-0.199589
  0
VERTEX
  8
LAYER_1
 62
7
 10
6.676690
 20
19.858266
 42
-0.199589
  0
VERTEX
  8
LAYER_1
 62
7
 10
6.621013
 20
19.835203
 42
-0.199589
  0
VERTEX
  8
LAYER_1
 62
7
 10
6.565335
 20
19.858266
 42
-0.199589
  0
VERTEX
  8
LAYER_1
 62
7
 10
6.542273
 20
19.913943
 42
-0.199589
  0
VERTEX
  8
LAYER_1
 62
7
 10
6.565335
 20
19.969621
 42
-0.199589
  0
VERTEX
  8
LAYER_1
 62
7
 10
6.621013
 20
19.992683
  0
SEQEND
  0
ENDSEC
  0
EOF
